PathFileType	4	(X/Y/Z)	c:\Git\powerlifing_model_clean\simulations\HC835B\Session1\HC835B_OGR_0007\marker_experimental.trc
DataRate	CameraRate	NumFrames	NumMarkers	Units	OrigDataRate	OrigDataStartFrame	OrigNumFrames
240.000000	240.000000	4	38	mm	240.000000	0	223
Frame#	Time	RPSI			LPSI			RASI			LASI			RTH1			RTH2			RTH3			RTH4			RSK1			RSK2			RSK3			RSK4			RCAL1			RCAL2			RCAL3			RST			RPT			RTN			RFMB			RSMB			RVMB			RFMH			RSMH			RVMH			RPM			LTH1			LTH2			LTH3			LTH4			LSK1			LSK2			LSK3			LSK4			LCAL1			LCAL2			LCAL3			LFMH			LVMH			
		X1	Y1	Z1	X2	Y2	Z2	X3	Y3	Z3	X4	Y4	Z4	X5	Y5	Z5	X6	Y6	Z6	X7	Y7	Z7	X8	Y8	Z8	X9	Y9	Z9	X10	Y10	Z10	X11	Y11	Z11	X12	Y12	Z12	X13	Y13	Z13	X14	Y14	Z14	X15	Y15	Z15	X16	Y16	Z16	X17	Y17	Z17	X18	Y18	Z18	X19	Y19	Z19	X20	Y20	Z20	X21	Y21	Z21	X22	Y22	Z22	X23	Y23	Z23	X24	Y24	Z24	X25	Y25	Z25	X26	Y26	Z26	X27	Y27	Z27	X28	Y28	Z28	X29	Y29	Z29	X30	Y30	Z30	X31	Y31	Z31	X32	Y32	Z32	X33	Y33	Z33	X34	Y34	Z34	X35	Y35	Z35	X36	Y36	Z36	X37	Y37	Z37	X38	Y38	Z38	

1	0	494.6493225097657	1224.01025390625	80.1875686645508	381.6719665527344	1223.875	75.8284149169922	560.7562255859376	1150.935180664063	-104.1910247802735	331.2991943359376	1134.585571289063	-112.2484436035157	624.7068481445314	866.1197509765627	-92.9849319458008	605.2310180664064	871.410095214844	-150.9114837646485	610.7481079101564	794.2440185546877	-136.2798461914063	581.2208251953126	797.7755126953127	-186.9035339355469	555.1920166015626	348.7211303710938	-150.998046875	561.0730590820314	345.0056457519532	-212.3562164306641	548.9301757812501	296.3574218750001	-176.9352264404297	542.4017944335939	294.4164733886719	-236.6202392578126	477.5843505859376	137.3523864746094	-155.7278900146485	438.2051086425782	112.2716751098633	-175.4542083740235	499.211151123047	94.73828887939455	-167.1765441894532	440.3058166503907	144.2902374267578	-239.3032989501954	532.9545288085939	111.1740112304688	-219.7344360351563	462.3291320800782	169.721664428711	-287.3240356445313	466.4360961914064	157.4404907226563	-322.1044311523438	519.1456298828126	169.8023223876953	-322.2423706054688	541.9281005859376	92.51418304443361	-268.1218566894532	461.3364257812501	139.533920288086	-380.7616882324219	520.1356201171876	143.64208984375	-386.9490661621095	565.0981445312501	95.02033996582033	-344.5879821777344	516.1304931640626	153.2137298583985	-441.391571044922	264.3750305175782	879.0670166015627	82.56562805175783	274.9999084472657	845.1929321289065	33.12816619873048	275.0549926757813	795.4502563476565	97.14312744140628	298.3835144042969	763.9383544921876	51.11038208007814	315.9570922851563	516.5780639648439	451.3272094726564	307.5019226074219	467.7407531738282	432.7679138183595	316.5446777343751	469.6606750488282	481.7769775390626	324.9635620117188	418.2061157226564	457.8894042968751	383.7811889648438	432.5679016113282	604.6205444335939	364.9236755371094	418.3218994140626	646.3574218750001	421.6516418457032	418.6732482910157	630.4967041015626	421.3053283691407	212.8880920410157	554.8151855468751	330.2374877929688	229.7008514404297	618.5522460937501	
2	0.004166666666666667	495.357147216797	1222.236206054688	66.55184936523439	382.3412780761719	1222.525756835938	62.1014747619629	560.8338623046876	1148.6005859375	-117.7813110351563	331.0799560546876	1134.056030273438	-126.0148696899414	625.5058593750001	863.0855102539065	-104.0573501586914	605.5982055664064	867.7061767578127	-161.8175506591797	611.1940307617189	790.7139282226565	-146.3740844726563	581.2274780273439	793.6324462890627	-196.7379913330079	555.0202636718751	345.8693542480469	-167.3729248046875	561.0459594726564	343.2261352539063	-228.827621459961	548.9096679687501	293.9995117187501	-194.3698120117188	542.4708251953126	293.1080322265626	-254.0435028076172	478.4542541503907	134.3215026855469	-176.0418548583985	438.8967590332032	109.7705917358399	-195.6998138427735	499.9229125976564	91.99084472656251	-188.43310546875	440.2865295410157	142.7023468017578	-259.0066223144532	533.0359497070314	109.2584686279297	-241.1496276855469	461.9694213867189	168.8938140869141	-306.8477478027344	465.3606872558595	157.2893524169922	-341.8352050781251	518.0799560546876	169.53564453125	-342.4309082031251	541.4226074218751	91.42889404296876	-289.9580383300782	460.0333557128907	140.7139129638672	-401.0006713867189	518.2619628906251	144.7762451171875	-407.5349731445314	563.5492553710939	95.11154937744142	-366.6697692871094	513.5622558593751	155.4609375	-461.7706909179689	264.2700195312501	877.0334472656252	67.32852172851564	275.0801086425782	843.4467773437502	17.74630928039551	274.8299865722657	793.2385253906252	81.36296844482423	298.2114868164063	762.0214233398439	35.17026519775391	316.1308898925782	521.3128051757814	438.6909790039064	307.0410766601563	472.1504516601564	421.591278076172	316.5458679199219	475.1224060058595	470.3784484863282	324.1275634765626	423.0523986816407	447.9710388183595	383.8401794433594	440.6854248046876	593.8908691406251	365.4035339355469	427.4456787109376	636.1408691406251	421.9257812500001	427.2147521972657	619.7215576171876	420.2634582519532	219.8888397216797	548.5586547851564	329.8091125488282	238.4884948730469	612.6930541992189	
3	0.008333333333333333	496.1385498046876	1220.129516601563	52.99621963500978	383.0920715332032	1220.93896484375	48.50698852539064	560.8442993164064	1146.1103515625	-131.3503723144532	330.8568725585938	1133.455200195313	-139.9785614013672	626.4205322265626	860.0982055664065	-115.2117462158203	606.0982666015626	864.137634277344	-172.874008178711	611.7321166992189	787.2891235351565	-156.6523742675782	581.3875122070314	789.7513427734377	-206.8476867675782	554.6665649414064	343.0773925781251	-183.3751220703125	561.0135498046876	341.4622802734376	-244.793930053711	548.8151855468751	291.7161254882813	-211.1698303222657	542.5633544921876	291.7359313964844	-270.8765563964844	479.4737243652345	131.538818359375	-195.3508453369141	439.5021362304689	107.0967178344727	-214.9179992675782	500.8327941894532	89.44306945800783	-208.7149810791016	440.2021789550782	141.132080078125	-277.5660705566407	533.2415161132814	107.5021896362305	-261.5423889160157	461.0628967285157	168.7829742431641	-324.1339111328126	464.2773742675782	157.1557922363282	-360.5490112304688	516.9038696289064	169.3328552246094	-361.6871337890626	540.9265136718751	90.31613159179689	-310.7527770996094	458.0128173828126	141.3749694824219	-419.8435058593751	516.1462402343751	145.5489196777344	-427.1322326660157	562.0850830078126	95.38415527343751	-387.6709289550782	510.7015075683595	157.442626953125	-480.955535888672	264.2330322265626	874.7438964843752	52.04048156738283	275.0115051269532	841.4794921875002	2.210633277893067	274.6955871582032	790.8989868164065	65.53008270263673	297.8606262207032	759.8532104492189	19.10712623596192	316.4379272460938	526.0626220703126	425.8133544921876	306.6567993164063	476.2352905273439	409.915496826172	316.5589294433594	480.4254150390626	458.5547485351564	323.3379821777344	428.0057067871095	437.4304504394532	383.9756164550782	448.7882690429689	582.6669311523439	365.7427673339844	436.4812927246095	625.3549194335939	422.2650146484376	435.8320922851564	608.5195922851564	419.1410522460939	226.8688049316407	542.0325317382814	329.2888793945313	247.2544708251954	606.5331420898439	
4	0.0125	496.9629516601564	1217.647216796875	39.48868560791016	383.8803710937501	1219.032348632813	34.99926376342774	560.7232666015626	1143.387573242188	-144.8268432617188	330.6436767578126	1132.408813476563	-153.5798645019532	627.4236450195314	857.1860961914065	-126.5138092041016	606.7043457031251	860.8093872070315	-184.0776519775391	612.3103637695314	784.0816040039065	-167.2923736572266	581.7827758789064	786.1585083007815	-217.4330444335938	554.2750854492189	340.3557739257813	-198.8095703125001	560.8980102539064	339.6186523437501	-260.2446594238282	548.5968627929689	289.3352050781251	-227.3735046386719	542.5357055664064	290.2474670410157	-287.0729370117188	480.3678588867189	128.771728515625	-213.7176208496094	440.3448181152345	104.6407546997071	-232.8856506347657	501.6870727539064	86.93136596679689	-227.8947753906251	440.1756591796876	139.3917388916016	-295.1763305664063	533.3782958984376	105.7398223876953	-280.9233703613282	461.383270263672	166.4950103759766	-343.2653198242188	462.948211669922	156.6134643554688	-378.1951904296876	515.6206665039064	168.9014282226563	-379.9767456054688	540.4364624023439	89.23934936523439	-330.4563903808594	455.9236755371095	141.6580200195313	-437.5857238769532	513.9601440429689	146.0821685791016	-445.646942138672	559.8594970703126	95.00355529785158	-407.6106567382814	507.7027893066407	159.0454254150391	-499.1039123535157	264.1026916503907	872.2912597656252	36.81089782714844	274.9152221679688	839.3645019531252	-13.29090023040772	274.1074523925782	788.2924804687502	49.66553878784181	297.3133239746094	757.5170898437501	3.021236658096314	316.5193481445313	530.2994384765626	412.2933959960939	306.2670593261719	480.1270751953126	397.785369873047	316.5341186523438	485.7857055664064	446.2543945312501	322.7310485839844	432.5401916503907	426.4960021972657	384.1553649902345	456.8379211425782	570.9279785156251	366.2372436523438	445.5903930664064	614.0470581054689	422.552703857422	444.2620239257814	596.7617187500001	418.0056457519532	233.9511718750001	535.2407836914064	328.5703430175782	255.9522247314454	599.9636840820314	
